<svg viewBox="0 0 32 32" fill="none" xmlns="http://www.w3.org/2000/svg">
  <defs>
    <linearGradient id="dw-tray-bg" x1="16" y1="0" x2="16" y2="32" gradientUnits="userSpaceOnUse">
      <stop offset="0%" stop-color="#6d72f8"/>
      <stop offset="100%" stop-color="#5248e8"/>
    </linearGradient>
    <linearGradient id="dw-tray-d-fill" x1="4" y1="4" x2="20" y2="26" gradientUnits="userSpaceOnUse">
      <stop offset="0%" stop-color="#ffffff"/>
      <stop offset="100%" stop-color="#e9d5ff"/>
    </linearGradient>
    <linearGradient id="dw-tray-w-stroke" x1="11" y1="16" x2="29" y2="29" gradientUnits="userSpaceOnUse">
      <stop offset="0%" stop-color="#7dd3fc"/>
      <stop offset="100%" stop-color="#2dd4bf"/>
    </linearGradient>
  </defs>
  <circle cx="16" cy="16" r="16" fill="url(#dw-tray-bg)"/>
  <path
      fill="url(#dw-tray-d-fill)"
      fill-rule="evenodd"
      d="M3.4 4h10.7c5.85 0 10.4 4.25 10.4 9.55 0 5.3-4.55 9.55-10.4 9.55H3.4V4Zm3.75 3.45v12.25h4.15c3.55 0 6.15-2.65 6.15-5.95 0-3.3-2.6-5.95-6.15-5.95H7.15V7.45Z"
  />
  <path
      d="M11.2 16.6c.85.25 2.15 11 5.5 10 1.85-.65 2.15-4.3 3.3-3.85 1.25.45 2.3 6 5.4 6.4 3.35.45 4.75-10 5.35-10.4"
      stroke="url(#dw-tray-w-stroke)"
      stroke-width="4.1"
      stroke-linecap="round"
      stroke-linejoin="round"
      fill="none"
  />
</svg>
